<?xml version="1.0" ?><!DOCTYPE svg  PUBLIC '-//W3C//DTD SVG 1.1//EN'  'http://www.w3.org/Graphics/SVG/1.1/DTD/svg11.dtd'><svg height="151px" style="shape-rendering:geometricPrecision; text-rendering:geometricPrecision; image-rendering:optimizeQuality; fill-rule:evenodd; clip-rule:evenodd" version="1.1" viewBox="0 0 74517 62459" width="180px" xml:space="preserve" xmlns="http://www.w3.org/2000/svg" xmlns:xlink="http://www.w3.org/1999/xlink"><defs><style type="text/css">
   <![CDATA[
    .fil7 {fill:none}
    .fil12 {fill:#5D718F}
    .fil0 {fill:#6C7678}
    .fil9 {fill:#83CF8F}
    .fil13 {fill:#B9C1C9}
    .fil15 {fill:#CCD2D9}
    .fil1 {fill:#E4E7ED}
    .fil14 {fill:#E5E8ED}
    .fil6 {fill:#ECF0F1}
    .fil2 {fill:#F2F2F2}
    .fil11 {fill:#FF7069}
    .fil10 {fill:#FFE356}
    .fil5 {fill:white}
    .fil3 {fill:white}
    .fil8 {fill:#6C7678;fill-rule:nonzero}
    .fil4 {fill:#B9C1C9;fill-rule:nonzero}
   ]]>
  </style></defs><g id="Layer_x0020_1"><g id="_463744208"><path class="fil0" d="M3976 0l66566 0c2186,0 3975,1789 3975,3976l0 41005 -74517 0 0 -41005c0,-2187 1789,-3976 3976,-3976z"/><path class="fil1" d="M2700 42281l69118 0 0 -38305c0,-696 -580,-1276 -1277,-1276l-66565 0c-696,0 -1276,580 -1276,1276l0 38305z"/><path class="fil2" d="M74517 44981l0 4349c0,2187 -1972,3976 -4383,3976l-65751 0c-2411,0 -4383,-1789 -4383,-3976l0 -4349 74517 0z"/><path class="fil3" d="M17158 8461l40202 0 5985 0c725,0 1318,593 1318,1318l0 7846 0 24656 -54808 0 0 -24656 0 -7846c0,-725 593,-1318 1318,-1318l5985 0z"/><path class="fil0" d="M11173 8461l52172 0c725,0 1318,593 1318,1318l0 2637 -54808 0 0 -2637c0,-725 593,-1318 1318,-1318z"/><path class="fil4" d="M13536 14157l0 412 -825 0 0 -412 825 0zm-1032 751l413 0 0 826 -413 0 0 -826zm0 2064l413 0 0 826 -413 0 0 -826zm0 2065l413 0 0 826 -413 0 0 -826zm0 2065l413 0 0 826 -413 0 0 -826zm0 2065l413 0 0 825 -413 0 0 -825zm0 2064l413 0 0 826 -413 0 0 -826zm643 1835l0 -414 826 0 0 414 -826 0zm2065 0l0 -414 826 0 0 414 -826 0zm2065 0l0 -414 826 0 0 414 -826 0zm2065 0l0 -414 825 0 0 414 -825 0zm2064 0l0 -414 826 0 0 414 -826 0zm2065 0l0 -414 826 0 0 414 -826 0zm2065 0l0 -414 826 0 0 414 -826 0zm2064 0l0 -414 826 0 0 414 -826 0zm2065 0l0 -414 826 0 0 414 -826 0zm2064 0l0 -414 826 0 0 414 -826 0zm2065 0l0 -414 826 0 0 414 -826 0zm2065 0l0 -414 825 0 0 414 -825 0zm2064 0l0 -414 826 0 0 414 -826 0zm2065 0l0 -414 826 0 0 414 -826 0zm2065 0l0 -414 825 0 0 414 -825 0zm2064 0l0 -414 826 0 0 414 -826 0zm2065 0l0 -414 826 0 0 414 -826 0zm2064 0l0 -414 826 0 0 414 -826 0zm2065 0l0 -414 826 0 0 414 -826 0zm2065 0l0 -414 826 0 0 414 -826 0zm2064 0l0 -414 826 0 0 414 -826 0zm2065 0l0 -414 826 0 0 414 -826 0zm2065 0l0 -414 825 0 0 414 -825 0zm2064 0l0 -414 826 0 0 414 -826 0zm1379 -1099l-412 0 0 -826 412 0 0 826zm0 -2064l-412 0 0 -826 412 0 0 826zm0 -2065l-412 0 0 -826 412 0 0 826zm0 -2065l-412 0 0 -826 412 0 0 826zm0 -2065l-412 0 0 -825 412 0 0 825zm0 -2064l-412 0 0 -826 412 0 0 826zm-990 -1487l0 412 -826 0 0 -412 826 0zm-2064 0l0 412 -826 0 0 -412 826 0zm-2065 0l0 412 -826 0 0 -412 826 0zm-2065 0l0 412 -825 0 0 -412 825 0zm-2065 0l0 412 -825 0 0 -412 825 0zm-2064 0l0 412 -826 0 0 -412 826 0zm-2065 0l0 412 -826 0 0 -412 826 0zm-2065 0l0 412 -826 0 0 -412 826 0zm-2064 0l0 412 -826 0 0 -412 826 0zm-2065 0l0 412 -826 0 0 -412 826 0zm-2064 0l0 412 -826 0 0 -412 826 0zm-2065 0l0 412 -826 0 0 -412 826 0zm-2065 0l0 412 -825 0 0 -412 825 0zm-2064 0l0 412 -826 0 0 -412 826 0zm-2065 0l0 412 -826 0 0 -412 826 0zm-2065 0l0 412 -826 0 0 -412 826 0zm-2064 0l0 412 -826 0 0 -412 826 0zm-2065 0l0 412 -826 0 0 -412 826 0zm-2064 0l0 412 -826 0 0 -412 826 0zm-2065 0l0 412 -826 0 0 -412 826 0zm-2065 0l0 412 -825 0 0 -412 825 0zm-2064 0l0 412 -826 0 0 -412 826 0zm-2065 0l0 412 -826 0 0 -412 826 0z"/><path class="fil4" d="M14629 31569l0 413 -826 0 0 -413 826 0zm35022 866l412 0 0 826 -412 0 0 -826zm0 2065l412 0 0 826 -412 0 0 -826zm0 2064l412 0 0 826 -412 0 0 -826zm0 2065l412 0 0 826 -412 0 0 -826zm657 1820l0 -413 826 0 0 413 -826 0zm2065 0l0 -413 826 0 0 413 -826 0zm2064 0l0 -413 826 0 0 413 -826 0zm2065 0l0 -413 826 0 0 413 -826 0zm2064 0l0 -413 826 0 0 413 -826 0zm2065 0l0 -83 -123 -123 0 -743 413 0 0 743 0 206 -207 0 -83 0zm290 -2188l-413 0 0 -826 413 0 0 826zm0 -2064l-413 0 0 -826 413 0 0 826zm0 -2065l-413 0 0 -826 413 0 0 826zm0 -2065l-413 0 0 -85 -328 0 0 -413 534 0 207 0 0 206 0 292zm-1980 -498l0 413 -826 0 0 -413 826 0zm-2064 0l0 413 -826 0 0 -413 826 0zm-2065 0l0 413 -826 0 0 -413 826 0zm-2064 0l0 413 -826 0 0 -413 826 0zm-2065 0l0 413 -826 0 0 -413 826 0zm-37086 866l413 0 0 826 -413 0 0 -826zm0 2065l413 0 0 826 -413 0 0 -826zm0 2064l413 0 0 826 -413 0 0 -826zm0 2065l413 0 0 826 -413 0 0 -826zm657 1820l0 -413 826 0 0 413 -826 0zm2065 0l0 -413 826 0 0 413 -826 0zm2065 0l0 -413 825 0 0 413 -825 0zm2064 0l0 -413 826 0 0 413 -826 0zm2065 0l0 -413 826 0 0 413 -826 0zm2064 0l0 -83 -123 -123 0 -743 413 0 0 743 0 206 -207 0 -83 0zm290 -2188l-413 0 0 -826 413 0 0 826zm0 -2064l-413 0 0 -826 413 0 0 826zm0 -2065l-413 0 0 -826 413 0 0 826zm0 -2065l-413 0 0 -85 -328 0 0 -413 534 0 207 0 0 206 0 292zm-1979 -498l0 413 -826 0 0 -413 826 0zm-2065 0l0 413 -826 0 0 -413 826 0zm-2065 0l0 413 -825 0 0 -413 825 0zm-2064 0l0 413 -826 0 0 -413 826 0z"/><path class="fil5" d="M32072 9826l28659 0c194,0 354,160 354,355l0 657c0,194 -160,354 -354,354l-28659 0c-195,0 -354,-159 -354,-354l0 -657c0,-196 159,-355 354,-355z"/><circle class="fil6" cx="37259" cy="25978" r="8740"/><path class="fil7" d="M45999 25978c0,4827 -3913,8740 -8740,8740 -4828,0 -8741,-3913 -8741,-8740"/><path class="fil8" d="M46206 25978c0,2470 -1002,4707 -2621,6326 -1619,1619 -3856,2620 -6326,2620 -2471,0 -4708,-1001 -6326,-2620 -1619,-1619 -2621,-3856 -2621,-6326l413 0c0,2356 955,4490 2500,6034 1544,1544 3677,2499 6034,2499 2356,0 4490,-955 6034,-2499 1544,-1544 2499,-3678 2499,-6034l414 0z"/><path class="fil9" d="M12971 9591c419,0 759,340 759,759 0,420 -340,760 -759,760 -420,0 -760,-340 -760,-760 0,-419 340,-759 760,-759z"/><path class="fil10" d="M15967 9591c420,0 759,340 759,759 0,420 -339,760 -759,760 -419,0 -759,-340 -759,-760 0,-419 340,-759 759,-759z"/><path class="fil11" d="M18964 9591c419,0 759,340 759,759 0,420 -340,760 -759,760 -419,0 -759,-340 -759,-760 0,-419 340,-759 759,-759z"/><path class="fil9" d="M35468 22455l-2051 4945 3722 7090 0 -7121c-312,-68 -546,-347 -546,-679 0,-385 312,-696 696,-696 384,0 695,311 695,696 0,353 -264,645 -606,690l0 7110 3722 -7090 -2051 -4945 -1790 0 -1791 0z"/><polygon class="fil8" points="27482,34511 47036,34511 47036,34924 27482,34924 "/><path class="fil0" d="M27482 34035c377,0 682,306 682,683 0,376 -305,682 -682,682 -377,0 -683,-306 -683,-682 0,-377 306,-683 683,-683z"/><path class="fil0" d="M47036 34035c376,0 682,306 682,683 0,376 -306,682 -682,682 -377,0 -683,-306 -683,-682 0,-377 306,-683 683,-683z"/><path class="fil12" d="M34811 12416l4895 0 0 9458c0,320 -261,581 -580,581l-3734 0c-320,0 -581,-261 -581,-581l0 -9458z"/><rect class="fil3" height="885" width="4895" x="34811" y="19495"/><circle class="fil0" cx="37259" cy="34758" r="690"/><path class="fil0" d="M28518 25295c377,0 683,306 683,683 0,376 -306,682 -683,682 -376,0 -682,-306 -682,-682 0,-377 306,-683 682,-683z"/><path class="fil0" d="M45999 25295c377,0 683,306 683,683 0,376 -306,682 -683,682 -377,0 -682,-306 -682,-682 0,-377 305,-683 682,-683z"/><circle class="fil13" cx="37259" cy="48970" r="1369"/><polygon class="fil14" points="45853,59561 52175,61587 22342,61587 27443,59561 27443,53306 45853,53306 "/><polygon class="fil15" points="27443,59561 45853,59561 52175,61587 52175,62459 37259,62459 22342,62459 22342,61587 "/><rect class="fil13" height="488" width="18410" x="27443" y="53306"/></g></g></svg>