<?xml version="1.0" ?><!DOCTYPE svg  PUBLIC '-//W3C//DTD SVG 1.1//EN'  'http://www.w3.org/Graphics/SVG/1.1/DTD/svg11.dtd'><svg height="151px" style="shape-rendering:geometricPrecision; text-rendering:geometricPrecision; image-rendering:optimizeQuality; fill-rule:evenodd; clip-rule:evenodd" version="1.1" viewBox="0 0 57186 47933" width="180px" xml:space="preserve" xmlns="http://www.w3.org/2000/svg" xmlns:xlink="http://www.w3.org/1999/xlink"><defs><style type="text/css">
   <![CDATA[
    .fil0 {fill:#6C7678}
    .fil7 {fill:#83CF8F}
    .fil3 {fill:#C6CBD6}
    .fil4 {fill:#CCD2D9}
    .fil9 {fill:#E5E8ED}
    .fil2 {fill:#F2F2F2}
    .fil5 {fill:#FF7069}
    .fil6 {fill:#FFE356}
    .fil1 {fill:white}
    .fil8 {fill:white;fill-rule:nonzero}
   ]]>
  </style></defs><g id="Layer_x0020_1"><g id="_469492816"><path class="fil0" d="M3051 0l51084 0c1678,0 3051,1373 3051,3051l0 31469 -57186 0 0 -31469c0,-1678 1373,-3051 3051,-3051z"/><path class="fil1" d="M2072 32447l53042 0 0 -29396c0,-535 -444,-979 -979,-979l-51084 0c-534,0 -979,444 -979,979l0 29396z"/><path class="fil2" d="M57186 34519l0 3338c0,1678 -1513,3051 -3363,3051l-50459 0c-1850,0 -3364,-1373 -3364,-3051l0 -3338 57186 0z"/><circle class="fil3" cx="28593" cy="37580" r="1050"/><path class="fil4" d="M16706 9986l-255 -1689 2673 -730 641 1584c600,-60 1206,-63 1807,-9l624 -1591 2680 703 -237 1691c544,245 1070,544 1570,897l1335 -1066 1970 1949 -1052 1347c358,496 662,1019 914,1561l1688 -255 731 2672 -1585 642c60,600 63,1205 9,1806l1592 625 -704 2680 -1691 -237c-245,543 -544,1070 -897,1569l1066 1336 -1949 1969 -1347 -1051c-496,357 -1019,662 -1560,913l254 1688 -2672 732 -641 -1586c-601,60 -1206,63 -1807,10l-625 1591 -2680 -703 238 -1691c-544,-246 -1070,-544 -1570,-897l-1336 1066 -1970 -1950 1052 -1346c-357,-497 -662,-1019 -913,-1561l-1688 255 -731 -2673 1585 -640c-60,-601 -63,-1207 -10,-1807l-1591 -625 703 -2680 1691 237c245,-544 545,-1069 897,-1570l-1066 -1335 1950 -1970 1346 1052c497,-358 1020,-662 1561,-913zm4011 1516c3944,0 7142,3198 7142,7142 0,3944 -3198,7142 -7142,7142 -3944,0 -7141,-3198 -7141,-7142 0,-3944 3197,-7142 7141,-7142z"/><circle class="fil5" cx="20717" cy="18644" r="7303"/><path class="fil4" d="M35030 5260c320,-51 640,-67 957,-50l448 -949 2266 795 -279 1017c257,186 496,400 713,641l987 -354 1041 2164 -917 521c51,320 67,640 50,958l949 447 -794 2267 -1017 -279c-186,257 -401,496 -641,713l354 986 -2164 1041 -522 -916c-319,51 -640,67 -957,50l-448 949 -2266 -795 278 -1016c-256,-187 -496,-401 -712,-642l-987 355 -1041 -2164 916 -522c-50,-320 -66,-641 -49,-957l-949 -448 794 -2267 1017 279c187,-257 400,-496 641,-712l-354 -987 2164 -1041 522 916zm716 1100c1878,0 3401,1523 3401,3401 0,1879 -1523,3402 -3401,3402 -1879,0 -3402,-1523 -3402,-3402 0,-1878 1523,-3401 3402,-3401z"/><circle class="fil6" cx="35746" cy="9761" r="3425"/><path class="fil4" d="M37878 17594l-163 -1083 1713 -468 411 1016c385,-39 773,-41 1158,-6l401 -1020 1719 450 -152 1085c348,157 685,349 1006,575l856 -684 1263 1250 -674 864c229,318 425,653 585,1000l1083 -163 468 1713 -1016 412c39,385 41,772 6,1158l1021 400 -451 1719 -1084 -152c-158,348 -350,686 -576,1006l684 857 -1250 1262 -864 -674c-318,229 -653,424 -1000,586l163 1082 -1713 469 -411 -1016c-386,38 -774,40 -1159,6l-400 1020 -1719 -451 152 -1084c-348,-158 -686,-349 -1006,-575l-856 683 -1263 -1250 674 -864c-229,-317 -425,-653 -585,-1000l-1083 163 -468 -1713 1016 -411c-39,-385 -41,-774 -6,-1159l-1021 -400 451 -1719 1084 153c158,-349 349,-686 576,-1007l-684 -856 1250 -1263 863 675c319,-230 654,-425 1001,-586zm2572 1002c2512,0 4549,2037 4549,4549 0,2512 -2037,4549 -4549,4549 -2512,0 -4549,-2037 -4549,-4549 0,-2512 2037,-4549 4549,-4549z"/><circle class="fil7" cx="40450" cy="23145" r="4567"/><path class="fil8" d="M18683 16121c0,-760 182,-1344 544,-1750 362,-407 905,-611 1630,-611 724,0 1268,204 1630,611 362,406 543,990 543,1750l0 295 -1395 0 0 -389c0,-339 -65,-579 -195,-717 -129,-139 -310,-209 -543,-209 -232,0 -413,70 -543,209 -130,138 -195,378 -195,717 0,322 72,606 215,852 143,246 322,478 537,698 214,219 444,438 691,657 245,219 476,459 690,718 215,259 394,554 537,885 143,331 215,720 215,1167 0,761 -186,1344 -557,1751 -371,407 -919,610 -1643,610 -725,0 -1273,-203 -1644,-610 -371,-407 -557,-990 -557,-1751l0 -577 1396 0 0 671c0,340 69,577 208,711 138,135 324,201 556,201 233,0 418,-66 557,-201 139,-134 208,-371 208,-711 0,-322 -72,-606 -215,-852 -143,-245 -322,-478 -536,-697 -215,-219 -445,-439 -691,-658 -246,-219 -476,-458 -691,-717 -215,-260 -394,-555 -537,-886 -143,-331 -215,-720 -215,-1167z"/><polygon class="fil8" points="35501,9425 36423,9425 36423,10036 35501,10036 35501,11288 36661,11288 36661,11898 34830,11898 34830,7624 36661,7624 36661,8235 35501,8235 "/><path class="fil8" d="M39996 24650c0,201 41,343 123,426 83,82 193,123 331,123 138,0 248,-41 330,-123 83,-83 124,-225 124,-426l0 -3010c0,-201 -41,-344 -124,-426 -82,-82 -192,-123 -330,-123 -138,0 -248,41 -331,123 -82,82 -123,225 -123,426l0 3010zm-876 -2954c0,-451 114,-798 343,-1039 228,-242 557,-363 987,-363 430,0 759,121 987,363 228,241 342,588 342,1039l0 2898c0,451 -114,798 -342,1039 -228,242 -557,363 -987,363 -430,0 -759,-121 -987,-363 -229,-241 -343,-588 -343,-1039l0 -2898z"/><g><polygon class="fil9" points="35189,45708 40040,47263 17146,47263 21060,45708 21060,40908 35189,40908 "/><polygon class="fil4" points="21060,45708 35189,45708 40040,47263 40040,47933 28594,47933 17146,47933 17146,47263 "/></g><rect class="fil4" height="482" width="14128" x="21061" y="40908"/></g></g></svg>