<?xml version="1.0" ?><!DOCTYPE svg  PUBLIC '-//W3C//DTD SVG 1.1//EN'  'http://www.w3.org/Graphics/SVG/1.1/DTD/svg11.dtd'><svg enable-background="new 0 0 512 512" height="512px" id="Слой_1" version="1.1" viewBox="0 0 512 512" width="512px" xml:space="preserve" xmlns="http://www.w3.org/2000/svg" xmlns:xlink="http://www.w3.org/1999/xlink"><g id="Responsive_Web_Design"><g><path d="M512,362.49V63.807c0-21.695-17.578-39.262-39.266-39.262H39.24C17.574,24.545,0,42.111,0,63.807V362.49    H512z" fill="#43454F"/><g><path d="M472.734,139.697c0,5.336-5.016,9.602-11.203,9.602H50.447c-6.188,0-11.207-4.328-11.207-9.664V73.498     c0-5.34,5.02-9.668,11.207-9.668h411.084c6.188,0,11.203,4.328,11.203,9.668V139.697z" fill="#CCD1D9"/><rect fill="#E5E8EC" height="234.273" width="433.494" x="39.24" y="88.955"/><path d="M57.881,73.822c-2.193,0-3.98,1.543-3.98,3.441c0,1.895,1.787,3.434,3.98,3.434     c2.199,0,3.986-1.539,3.986-3.434C61.867,75.365,60.08,73.822,57.881,73.822z" fill="#E6E9ED"/><path d="M76.18,73.822c-2.199,0-3.98,1.543-3.98,3.441c0,1.895,1.781,3.434,3.98,3.434     c2.193,0,3.98-1.539,3.98-3.434C80.16,75.365,78.373,73.822,76.18,73.822z" fill="#E6E9ED"/><path d="M94.473,73.822c-2.193,0-3.979,1.543-3.979,3.441c0,1.895,1.785,3.434,3.979,3.434     c2.201,0,3.988-1.539,3.988-3.434C98.461,75.365,96.674,73.822,94.473,73.822z" fill="#E6E9ED"/></g><polygon fill="#CCD1D9" points="332.469,458.939 179.527,458.939 189.293,417.092 322.707,417.092   "/><path d="M0,362.49v15.34c0,21.68,17.574,39.262,39.24,39.262h433.494c21.688,0,39.266-17.594,39.266-39.262v-15.34    H0z" fill="#E6E9ED"/><path d="M159.746,487.455c-7.879,0-14.26-6.383-14.26-14.258l0,0c0-7.875,6.381-14.258,14.26-14.258h192.5    c7.871,0,14.262,6.383,14.262,14.258l0,0c0,7.875-6.391,14.258-14.262,14.258H159.746z" fill="#E6E9ED"/><rect fill="#EC5564" height="9.711" width="86.406" x="278.969" y="180.643"/><rect fill="#F4F6F9" height="234.273" width="433.494" x="39.24" y="88.955"/><g><polygon fill="#4A89DC" points="60.461,110.217 60.207,201.205 451.48,201.205 451.48,110.217    "/><rect fill="#FFFFFF" height="2.945" width="263.627" x="124.061" y="144.713"/><rect fill="#FFFFFF" height="2.953" width="131.895" x="189.926" y="153.725"/><rect fill="#FFFFFF" height="2.953" width="65.986" x="222.881" y="162.744"/></g><g><rect fill="#FFFFFF" height="79.797" width="116.254" x="335.227" y="222.463"/><path d="M409.938,251.346c0,9.156-7.422,16.586-16.586,16.586c-9.156,0-16.586-7.43-16.586-16.586     c0-9.168,7.43-16.586,16.586-16.586C402.516,234.76,409.938,242.178,409.938,251.346z" fill="#5D9CEC"/><rect fill="#656D78" height="2.953" width="79.801" x="353.453" y="278.584"/><rect fill="#656D78" height="2.953" width="27.922" x="379.391" y="287.604"/></g><g><rect fill="#FFFFFF" height="79.797" width="116.248" x="197.721" y="222.463"/><path d="M272.434,251.346c0,9.156-7.426,16.586-16.594,16.586c-9.16,0-16.586-7.43-16.586-16.586     c0-9.168,7.426-16.586,16.586-16.586C265.008,234.76,272.434,242.178,272.434,251.346z" fill="#5D9CEC"/><rect fill="#656D78" height="2.953" width="79.795" x="215.947" y="278.584"/><rect fill="#656D78" height="2.953" width="27.922" x="241.883" y="287.604"/></g><g><rect fill="#FFFFFF" height="79.797" width="116.254" x="60.207" y="222.463"/><path d="M134.92,251.346c0,9.156-7.426,16.586-16.586,16.586s-16.588-7.43-16.588-16.586     c0-9.168,7.428-16.586,16.588-16.586S134.92,242.178,134.92,251.346z" fill="#5D9CEC"/><rect fill="#656D78" height="2.953" width="79.793" x="78.434" y="278.584"/><rect fill="#656D78" height="2.953" width="27.92" x="104.373" y="287.604"/></g></g><g><g><path d="M512,481.979c0,3.023-2.461,5.477-5.48,5.477H362.063c-3.031,0-5.484-2.453-5.484-5.477V230.369     c0-3.016,2.453-5.469,5.484-5.469H506.52c3.02,0,5.48,2.453,5.48,5.469V481.979z" fill="#303842"/><path d="M512,474.811c0,3.027-2.461,5.48-5.48,5.48H362.063c-3.031,0-5.484-2.453-5.484-5.48V223.213     c0-3.031,2.453-5.484,5.484-5.484H506.52c3.02,0,5.48,2.453,5.48,5.484V474.811z" fill="#424953"/><rect fill="#E5E8EC" height="179.703" width="129.73" x="369.422" y="251.869"/><circle cx="434.287" cy="456.689" fill="#646C77" r="12.361"/><path d="M460.133,235.713c0,2.188-1.766,3.961-3.953,3.961h-43.789c-2.184,0-3.953-1.773-3.953-3.961l0,0     c0-2.188,1.77-3.953,3.953-3.953h43.789C458.367,231.76,460.133,233.525,460.133,235.713L460.133,235.713z" fill="#303842"/></g><rect fill="#FFFFFF" height="73.57" width="111.695" x="378.438" y="358.002"/><path d="M450.875,386.885c0,9.16-7.43,16.586-16.586,16.586c-9.164,0-16.59-7.426-16.59-16.586    c0-9.168,7.426-16.594,16.59-16.594C443.445,370.291,450.875,377.717,450.875,386.885z" fill="#5D9CEC"/><rect fill="#656D78" height="2.945" width="79.797" x="394.391" y="414.127"/><rect fill="#656D78" height="2.953" width="27.918" x="420.328" y="423.143"/><rect fill="#4A89DC" height="85.973" width="111.695" x="378.438" y="261.791"/><g><rect fill="#FFFFFF" height="2.953" width="81.48" x="393.547" y="286.9"/><rect fill="#FFFFFF" height="2.961" width="81.48" x="393.547" y="295.916"/><rect fill="#FFFFFF" height="2.953" width="81.48" x="393.547" y="304.939"/><rect fill="#FFFFFF" height="2.953" width="81.48" x="393.547" y="313.955"/><rect fill="#FFFFFF" height="2.953" width="81.48" x="393.547" y="322.979"/></g></g></g></svg>